<svg width="169" height="61" viewBox="0 0 169 61" fill="none" xmlns="http://www.w3.org/2000/svg">
<path d="M168.099 5.48985C168.329 4.79426 167.952 4.04447 167.257 3.81515C166.563 3.58582 165.814 3.96379 165.585 4.65938L168.099 5.48985ZM133.908 37.3822L134.119 38.6914L133.908 37.3822ZM95.0139 15.8128L96.3377 15.8075L95.0139 15.8128ZM106.754 1.63279L106.85 2.95538L106.754 1.63279ZM119.106 11.8869L117.86 12.3343L119.106 11.8869ZM85.8799 46.9539L86.03 48.2715L85.8799 46.9539ZM50.4644 24.7055L51.7864 24.6348L50.4644 24.7055ZM58.9597 13.7843L59.2897 15.0684L58.9597 13.7843ZM33.1809 58.7912L33.2806 57.4688L33.1809 58.7912ZM2.04332 39.5222L2.33854 38.2293C1.8693 38.1219 1.37876 38.2782 1.05748 38.6374C0.736206 38.9966 0.63482 39.5021 0.792726 39.9576L2.04332 39.5222ZM13.5488 43.5151C14.2615 43.6781 14.9715 43.2315 15.1345 42.5175C15.2976 41.8035 14.852 41.0924 14.1393 40.9293L13.5488 43.5151ZM4.95327 51.959C5.1931 52.6508 5.94743 53.0166 6.63811 52.7762C7.3288 52.5357 7.69429 51.7799 7.45447 51.0881L4.95327 51.959ZM166.842 5.07461C165.585 4.65938 165.585 4.65905 165.585 4.65883C165.585 4.6589 165.585 4.65879 165.585 4.65893C165.585 4.65922 165.585 4.65993 165.585 4.66107C165.584 4.66335 165.582 4.66733 165.581 4.67301C165.577 4.68434 165.571 4.7024 165.562 4.72699C165.545 4.77615 165.519 4.8514 165.484 4.95111C165.413 5.15054 165.305 5.44773 165.158 5.82977C164.864 6.59403 164.415 7.69668 163.804 9.03466C162.58 11.7132 160.708 15.3208 158.119 19.0399C152.923 26.5044 144.962 34.2483 133.697 36.0731L134.119 38.6914C146.4 36.702 154.906 28.2922 160.291 20.5564C162.992 16.6753 164.939 12.9211 166.211 10.138C166.848 8.74509 167.317 7.59189 167.628 6.78301C167.784 6.37848 167.9 6.05978 167.978 5.83997C168.017 5.73005 168.047 5.64484 168.067 5.58595C168.077 5.5565 168.085 5.53364 168.09 5.51755C168.093 5.50951 168.095 5.50317 168.096 5.49854C168.097 5.49623 168.098 5.49434 168.098 5.49289C168.099 5.49217 168.099 5.49141 168.099 5.49104C168.099 5.49039 168.099 5.48985 166.842 5.07461ZM133.697 36.0731C124.901 37.498 115.479 35.9185 108.289 32.1786C101.08 28.4294 96.3623 22.6679 96.3377 15.8075L93.69 15.818C93.7195 24.0408 99.3783 30.5333 107.068 34.5327C114.775 38.5414 124.774 40.2051 134.119 38.6914L133.697 36.0731ZM96.3377 15.8075C96.3305 13.7967 97.1772 10.6541 98.9849 7.95501C100.776 5.28104 103.389 3.20992 106.85 2.95538L106.658 0.310191C102.14 0.642361 98.8749 3.35942 96.7863 6.47786C94.7146 9.57117 93.6807 13.2252 93.69 15.818L96.3377 15.8075ZM106.85 2.95538C110.121 2.71486 112.453 3.99562 114.191 5.85199C115.97 7.75177 117.115 10.2521 117.86 12.3343L120.352 11.4394C119.563 9.2304 118.268 6.32899 116.123 4.03718C113.936 1.70196 110.859 0.00127746 106.658 0.310191L106.85 2.95538ZM117.86 12.3343C120.824 20.628 117.593 28.3208 111.104 34.3476C104.595 40.3931 94.9599 44.5778 85.7298 45.6364L86.03 48.2715C95.7627 47.1552 105.94 42.7599 112.904 36.2923C119.887 29.8061 123.788 21.0527 120.352 11.4394L117.86 12.3343ZM85.7298 45.6364C77.813 46.5443 69.4608 45.1072 63.0277 41.5104C56.6226 37.9294 52.1902 32.2645 51.7864 24.6348L49.1424 24.7762C49.6048 33.5132 54.727 39.9075 61.7366 43.8266C68.7182 47.7299 77.6407 49.2336 86.03 48.2715L85.7298 45.6364ZM51.7864 24.6348C51.6598 22.2428 52.2437 20.2152 53.4476 18.6262C54.654 17.0337 56.5669 15.7716 59.2897 15.0684L58.6297 12.5001C55.4497 13.3213 52.9744 14.8641 51.3387 17.0232C49.7003 19.1858 48.9879 21.8567 49.1424 24.7762L51.7864 24.6348ZM59.2897 15.0684C61.7798 14.4254 63.7847 14.9227 65.4712 16.1328C67.2122 17.3819 68.682 19.445 69.8774 22.0184L72.278 20.8987C70.9838 18.1127 69.2709 15.5959 67.0135 13.9763C64.7016 12.3176 61.8924 11.6575 58.6297 12.5001L59.2897 15.0684ZM69.8774 22.0184C73.8787 30.6315 69.5702 39.7074 61.4869 46.7109C53.4263 53.6949 42.0985 58.1331 33.2806 57.4688L33.0811 60.1136C42.7723 60.8438 54.7697 56.0371 63.2186 48.7167C71.6449 41.4159 77.0302 31.1282 72.278 20.8987L69.8774 22.0184ZM33.2806 57.4688C26.4386 56.9532 18.9235 52.3623 12.9806 47.7018C10.0407 45.3964 7.54498 43.1221 5.78406 41.4236C4.90426 40.575 4.20961 39.8717 3.73651 39.3824C3.5 39.1378 3.31898 38.9468 3.19799 38.8179C3.13752 38.7534 3.09205 38.7046 3.06217 38.6723C3.04723 38.6562 3.03619 38.6442 3.02913 38.6365C3.0256 38.6327 3.02305 38.6299 3.02151 38.6282C3.02074 38.6274 3.02022 38.6268 3.01996 38.6265C3.01982 38.6264 3.01981 38.6264 3.01975 38.6263C3.01979 38.6263 3.01991 38.6265 2.04332 39.5222C1.06674 40.4179 1.06697 40.4181 1.06728 40.4185C1.06746 40.4187 1.06783 40.4191 1.0682 40.4195C1.06895 40.4203 1.06995 40.4214 1.0712 40.4227C1.07369 40.4255 1.0772 40.4293 1.0817 40.4342C1.09071 40.444 1.10372 40.4581 1.12066 40.4764C1.15452 40.5129 1.2041 40.5662 1.26882 40.6352C1.39825 40.7731 1.58827 40.9736 1.83431 41.228C2.32632 41.7369 3.04283 42.4621 3.94722 43.3345C5.75467 45.0779 8.31941 47.4155 11.348 49.7905C17.342 54.491 25.3957 59.5345 33.0811 60.1136L33.2806 57.4688ZM1.74809 40.815L13.5488 43.5151L14.1393 40.9293L2.33854 38.2293L1.74809 40.815ZM0.792726 39.9576L4.95327 51.959L7.45447 51.0881L3.29392 39.0867L0.792726 39.9576Z" fill="#6C5FBC"/>
</svg>
