<svg width="101" height="97" viewBox="0 0 101 97" fill="none" xmlns="http://www.w3.org/2000/svg">
<path d="M71.6674 10.665C80.803 24.2797 86.0196 39.8403 80.7461 55.7517C75.9861 70.1135 63.0132 78.6203 48.1158 67.9651C41.0635 62.9212 36.4872 52.7419 41.0691 45.1791C46.1738 36.7534 57.5029 44.2181 60.5762 49.9522C67.7546 63.3447 63.1038 81.4038 47.3119 89.5618C28.6107 99.2227 20.562 80.755 20.7098 80.7507" stroke="#665AB5" stroke-width="2.65" stroke-miterlimit="1.5" stroke-linecap="round" stroke-linejoin="round"/>
<path d="M91.0252 14.5325C89.1008 14.9057 87.2148 14.5294 85.3113 14.2401C79.0607 13.2904 72.6697 10.4878 68.7865 5.86609C71.0232 11.7936 71.6843 20.1607 66.9233 25.1801" stroke="#665AB5" stroke-width="2.65" stroke-miterlimit="1.5" stroke-linecap="round" stroke-linejoin="round"/>
</svg>
