<svg width="22" height="20" viewBox="0 0 22 20" fill="none" xmlns="http://www.w3.org/2000/svg">
<path fill-rule="evenodd" clip-rule="evenodd" d="M10.7328 0C12.1676 0.0473476 13.6537 0.0473476 15.0886 0.094689C16.3697 0.14203 17.5483 0.331406 18.6756 0.94687C20.1105 1.75171 20.9816 2.9353 21.2891 4.45029C21.4428 5.34982 21.4941 6.29668 21.5453 7.19622C21.5965 9.18464 21.5453 11.1731 21.5453 13.1615C21.5453 14.2031 21.4941 15.2446 21.1354 16.2388C20.4179 18.1799 18.9319 19.3635 16.7796 19.7422C15.806 19.9316 14.7811 19.9316 13.8075 19.979C11.6552 20.0263 9.55418 19.979 7.40193 19.979C6.27456 19.979 5.14719 19.9316 4.07106 19.6002C1.97005 18.9374 0.688949 17.5644 0.278994 15.576C0.0740214 14.6765 0.0740214 13.7296 0.0227765 12.8301C-0.0284706 10.8417 0.0227765 8.85324 0.0227765 6.86481C0.0227765 5.82326 0.0740214 4.7817 0.432729 3.78748C1.15015 1.84639 2.63623 0.662814 4.78848 0.284064C5.76212 0.0946952 6.787 0.0946952 7.76064 0.0473476C8.73428 0 9.70791 0 10.7328 0ZM19.5979 9.80015C19.5467 9.80015 19.5979 9.80015 19.5979 9.80015C19.5467 8.9953 19.5467 8.2378 19.5467 7.43296C19.5467 6.67548 19.4954 5.91797 19.3929 5.16048C19.188 3.45611 18.1118 2.31986 16.3183 1.98847C15.3959 1.79909 14.371 1.79909 13.4486 1.79909C11.6038 1.75175 9.81027 1.75175 7.96549 1.79909C7.04309 1.79909 6.1207 1.84643 5.24954 1.98847C3.71222 2.22518 2.63609 3.03002 2.1749 4.45033C2.02117 4.92376 1.96992 5.3972 1.91868 5.87063C1.86743 7.66969 1.86743 9.46874 1.86743 11.2678C1.86743 12.404 1.91868 13.5876 2.02117 14.7239C2.1749 16.4282 3.30227 17.6118 5.14706 17.8959C6.06945 18.0379 7.04309 18.0853 8.01673 18.0853C9.81027 18.1326 11.6038 18.0853 13.4486 18.0853C14.2685 18.0853 15.0884 18.0379 15.9083 17.9432C16.677 17.8959 17.3944 17.6592 18.0093 17.1857C19.0342 16.4282 19.3929 15.434 19.4442 14.2978C19.5467 12.8775 19.5467 11.3625 19.5979 9.80015Z" fill="#081420"/>
<path fill-rule="evenodd" clip-rule="evenodd" d="M16.2667 9.98929C16.2667 12.8299 13.807 15.1024 10.7324 15.1024C7.65772 15.1024 5.198 12.8299 5.198 9.94196C5.198 7.14869 7.70896 4.87622 10.7836 4.87622C13.807 4.87622 16.2667 7.14869 16.2667 9.98929ZM10.7326 13.3032C12.6798 13.3032 14.3196 11.7882 14.3196 9.9892C14.3196 8.19016 12.6798 6.67517 10.7326 6.67517C8.73403 6.67517 7.14546 8.19016 7.14546 9.9892C7.09422 11.7882 8.73403 13.3032 10.7326 13.3032Z" fill="#081420"/>
<path d="M17.7539 4.6394C17.7539 5.30222 17.1902 5.87035 16.4728 5.87035C15.7554 5.87035 15.1405 5.30222 15.1917 4.6394C15.1917 3.9766 15.7554 3.45581 16.4728 3.45581C17.1902 3.45581 17.7539 3.97659 17.7539 4.6394Z" fill="#081420"/>
</svg>
