<svg width="23" height="20" viewBox="0 0 23 20" fill="none" xmlns="http://www.w3.org/2000/svg">
<path fill-rule="evenodd" clip-rule="evenodd" d="M22.523 11.6562V19.0144H17.8721V12.1396C17.8721 10.4208 17.2327 9.23922 15.5467 9.23922C14.2678 9.23922 13.512 10.0449 13.1632 10.7968C13.0469 11.0654 12.9888 11.4413 12.9888 11.8173V19.0144H8.33801C8.33801 19.0144 8.39615 7.35938 8.33801 6.17777H12.9888V8.0039C12.9888 8.0039 12.9888 8.0576 12.9307 8.0576H12.9888V8.0039C13.6283 7.14454 14.6747 5.85551 17.1745 5.85551C20.1975 5.85551 22.523 7.73535 22.523 11.6562ZM3.57042 0.0012207C2.00077 0.0012207 0.954346 0.967999 0.954346 2.20333C0.954346 3.43864 1.94264 4.40544 3.51228 4.40544H3.57042C5.1982 4.40544 6.1865 3.43865 6.1865 2.20333C6.12836 0.967999 5.14007 0.0012207 3.57042 0.0012207ZM1.18738 19.0145H5.78005V6.1779H1.18738V19.0145Z" fill="#081420"/>
</svg>
