<svg width="46" height="43" viewBox="0 0 46 43" fill="none" xmlns="http://www.w3.org/2000/svg">
<rect x="3.67896" y="5.05884" width="42.3211" height="37.9412" rx="6.96951" fill="#6C5FBC"/>
<rect x="1.0075" y="1.0075" width="40.3061" height="35.9262" rx="5.96201" fill="#DBD9EE" stroke="#6C5FBC" stroke-width="2.01499"/>
<path d="M32.6655 11.7695L9.73482 11.6689" stroke="#6C5FBC" stroke-width="2.08432" stroke-linecap="round" stroke-linejoin="round"/>
<path d="M32.6505 16.3244L27.551 16.3025C25.4418 16.2934 23.736 14.245 23.7439 11.7305C23.7519 9.21603 25.4705 7.18222 27.5798 7.19126L32.6793 7.21313" stroke="#6C5FBC" stroke-width="2.08432" stroke-linecap="round" stroke-linejoin="round"/>
<path d="M17.3834 26.3438L10.7208 26.2707C10.1749 26.2683 9.71752 25.7339 9.70716 25.083L9.66291 23.367C9.65264 22.6865 10.1135 22.1116 10.6843 22.1141L17.2724 22.1869L17.3834 26.3438Z" stroke="#6C5FBC" stroke-width="2.08432" stroke-linecap="round" stroke-linejoin="round"/>
<path d="M27.8486 28.8158L18.4311 28.7014C17.8851 28.6991 17.4277 28.1646 17.4174 27.5137L17.2978 22.1728L32.5965 22.3568L32.6067 23.0373C32.6834 26.2625 30.541 28.8569 27.8486 28.8158Z" stroke="#6C5FBC" stroke-width="2.08432" stroke-linecap="round" stroke-linejoin="round"/>
</svg>
