<svg width="51" height="51" viewBox="0 0 51 51" fill="none" xmlns="http://www.w3.org/2000/svg">
<rect x="0.531738" y="0.111633" width="50.2588" height="50.2588" rx="25.1294" fill="#F2FDF6"/>
<path d="M30.8962 34.927H20.4256C17.2844 34.927 15.1903 33.3564 15.1903 29.6917V22.3622C15.1903 18.6975 17.2844 17.127 20.4256 17.127H30.8962C34.0374 17.127 36.1315 18.6975 36.1315 22.3622V29.6917C36.1315 33.3564 34.0374 34.927 30.8962 34.927Z" stroke="#22C55E" stroke-width="1.57059" stroke-miterlimit="10" stroke-linecap="round" stroke-linejoin="round"/>
<path d="M25.6609 29.1681C27.3957 29.1681 28.8021 27.7617 28.8021 26.0269C28.8021 24.2921 27.3957 22.8857 25.6609 22.8857C23.9261 22.8857 22.5197 24.2921 22.5197 26.0269C22.5197 27.7617 23.9261 29.1681 25.6609 29.1681Z" stroke="#22C55E" stroke-width="1.57059" stroke-miterlimit="10" stroke-linecap="round" stroke-linejoin="round"/>
<path d="M18.855 23.4093V28.6446" stroke="#22C55E" stroke-width="1.57059" stroke-miterlimit="10" stroke-linecap="round" stroke-linejoin="round"/>
<path d="M32.4667 23.4093V28.6446" stroke="#22C55E" stroke-width="1.57059" stroke-miterlimit="10" stroke-linecap="round" stroke-linejoin="round"/>
</svg>
