<svg width="22" height="17" viewBox="0 0 22 17" fill="none" xmlns="http://www.w3.org/2000/svg">
<path fill-rule="evenodd" clip-rule="evenodd" d="M21.9999 2.57294C21.1879 2.90114 20.3759 3.13557 19.4624 3.22934C20.3759 2.7136 21.0864 1.91655 21.3909 0.978834C20.5282 1.44769 19.5639 1.77588 18.5997 1.96343C17.7877 1.16637 16.6205 0.650635 15.3518 0.650635C12.9159 0.650635 10.9367 2.47917 10.9367 4.72967C10.9367 5.05788 10.9874 5.38607 11.0382 5.66739C7.33355 5.47984 4.08565 3.88573 1.90346 1.40081C1.49748 2.01031 1.29448 2.7136 1.29448 3.46376C1.29448 4.87033 2.05571 6.13624 3.27368 6.8864C2.5632 6.8864 1.85272 6.69887 1.24374 6.37066V6.41755C1.24374 8.38674 2.76619 10.0746 4.79613 10.4497C4.44089 10.5435 4.0349 10.5904 3.62891 10.5904C3.32443 10.5904 3.07068 10.5435 2.81694 10.4966C3.37517 12.1376 4.99913 13.3097 6.97831 13.3566C5.45586 14.435 3.57816 15.0914 1.49748 15.0914C1.14224 15.0914 0.787004 15.0914 0.431763 15.0445C2.41095 16.2166 4.69463 16.873 7.23205 16.873C15.4026 16.873 19.8177 10.6372 19.8177 5.24541C19.8177 5.05788 19.8177 4.87033 19.8177 4.72967C20.6804 4.12017 21.4416 3.36999 21.9999 2.57294Z" fill="#6C5FBC"/>
</svg>
