<svg width="51" height="52" viewBox="0 0 51 52" fill="none" xmlns="http://www.w3.org/2000/svg">
<rect x="0.531738" y="0.968201" width="50.2588" height="50.2588" rx="25.1294" fill="#F4F0FF"/>
<path d="M26.3519 15.3842L26.3205 15.4575L23.284 22.5042H20.2999C19.5879 22.5042 18.9073 22.6508 18.2896 22.9125L20.1219 18.5358L20.1638 18.4311L20.2371 18.2636C20.258 18.2008 20.279 18.1379 20.3104 18.0856C21.682 14.913 23.2317 14.1905 26.3519 15.3842Z" stroke="#936DFF" stroke-width="1.57059" stroke-linecap="round" stroke-linejoin="round"/>
<path d="M31.9956 22.7136C31.5245 22.567 31.0219 22.5042 30.5193 22.5042H23.2841L26.3206 15.4574L26.352 15.3842C26.5091 15.4365 26.6556 15.5098 26.8127 15.5726L29.1267 16.5464C30.4146 17.0804 31.3151 17.6353 31.8595 18.3054C31.9642 18.4311 32.048 18.5463 32.1213 18.6824C32.2155 18.829 32.2888 18.9756 32.3307 19.1326C32.3726 19.2269 32.404 19.3211 32.4249 19.4049C32.7076 20.2844 32.5401 21.3629 31.9956 22.7136Z" stroke="#936DFF" stroke-width="1.57059" stroke-linecap="round" stroke-linejoin="round"/>
<path d="M35.6307 27.614V29.6558C35.6307 29.8652 35.6202 30.0746 35.6098 30.284C35.4108 33.9383 33.369 35.7811 29.4949 35.7811H21.3279C21.0766 35.7811 20.8253 35.7602 20.5845 35.7287C17.2548 35.5089 15.4748 33.7289 15.2549 30.3992C15.2235 30.1584 15.2026 29.9071 15.2026 29.6558V27.614C15.2026 25.5095 16.48 23.698 18.3019 22.9127C18.9301 22.651 19.6002 22.5044 20.3122 22.5044H30.5315C31.0446 22.5044 31.5472 22.5777 32.0079 22.7138C34.0915 23.3525 35.6307 25.3 35.6307 27.614Z" stroke="#936DFF" stroke-width="1.57059" stroke-linecap="round" stroke-linejoin="round"/>
<path d="M20.122 18.5358L18.2896 22.9125C16.4677 23.6978 15.1903 25.5092 15.1903 27.6138V24.5459C15.1903 21.5723 17.3054 19.0907 20.122 18.5358Z" stroke="#936DFF" stroke-width="1.57059" stroke-linecap="round" stroke-linejoin="round"/>
<path d="M35.6274 24.5454V27.6133C35.6274 25.3097 34.0987 23.3517 32.0046 22.7235C32.549 21.3623 32.7061 20.2943 32.4443 19.4043C32.4234 19.3101 32.392 19.2158 32.3501 19.1321C34.2976 20.1373 35.6274 22.2 35.6274 24.5454Z" stroke="#936DFF" stroke-width="1.57059" stroke-linecap="round" stroke-linejoin="round"/>
</svg>
